<?xml version="1.0" encoding="UTF-8" standalone="no"?>
<svg
   xmlns:dc="http://purl.org/dc/elements/1.1/"
   xmlns:cc="http://creativecommons.org/ns#"
   xmlns:rdf="http://www.w3.org/1999/02/22-rdf-syntax-ns#"
   xmlns:svg="http://www.w3.org/2000/svg"
   xmlns="http://www.w3.org/2000/svg"
   xmlns:xlink="http://www.w3.org/1999/xlink"
   id="svg8"
   version="1.1"
   viewBox="0 0 67.733332 33.866668"
   height="128"
   width="256">
  <defs
     id="defs2" />
  <metadata
     id="metadata5">
    <rdf:RDF>
      <cc:Work
         rdf:about="">
        <dc:format>image/svg+xml</dc:format>
        <dc:type
           rdf:resource="http://purl.org/dc/dcmitype/StillImage" />
        <dc:title></dc:title>
      </cc:Work>
    </rdf:RDF>
  </metadata>
  <g
     transform="translate(0,-263.13333)"
     id="layer1">
    <path
       id="path815"
       d="m 25.152165,268.39744 v 21.22174"
       style="fill:none;stroke:#f9f9f9;stroke-width:0.26458332px;stroke-linecap:round;stroke-linejoin:miter;stroke-opacity:1" />
    <path
       id="use821"
       d="m 41.027167,268.39744 v 21.22174"
       style="fill:none;stroke:#f9f9f9;stroke-width:0.26458332px;stroke-linecap:round;stroke-linejoin:miter;stroke-opacity:1" />
    <path
       id="path825"
       d="M 25.152165,268.39744 H 46.318832"
       style="fill:none;stroke:#f9f9f9;stroke-width:0.26499999;stroke-linecap:round;stroke-linejoin:miter;stroke-miterlimit:4;stroke-dasharray:none;stroke-opacity:1" />
    <use
       height="100%"
       width="100%"
       transform="translate(5.2916673,-1.61875e-6)"
       id="use835"
       xlink:href="#use821"
       y="0"
       x="0" />
    <text
       id="text858"
       y="280.38672"
       x="16.095787"
       style="font-style:normal;font-weight:normal;font-size:10.58333302px;line-height:1.25;font-family:sans-serif;letter-spacing:0px;word-spacing:0px;fill:#f9f9f9;fill-opacity:1;stroke:none;stroke-width:0.26458332;"
       xml:space="preserve"><tspan
         style="font-style:normal;font-variant:normal;font-weight:normal;font-stretch:normal;font-size:3.52777767px;font-family:'DejaVu Sans';-inkscape-font-specification:'DejaVu Sans';stroke-width:0.26458332;fill:#f9f9f9;fill-opacity:1;"
         y="280.38672"
         x="16.095787"
         id="tspan856">M =</tspan></text>
    <text
       xml:space="preserve"
       style="font-style:normal;font-weight:normal;font-size:10.58333302px;line-height:1.25;font-family:sans-serif;text-align:center;letter-spacing:0px;word-spacing:0px;text-anchor:middle;fill:#f9f9f9;fill-opacity:1;stroke:none;stroke-width:0.26458332"
       x="27.762943"
       y="272.3548"
       id="text907"><tspan
         id="tspan905"
         x="27.762943"
         y="272.3548"
         style="font-style:normal;font-variant:normal;font-weight:normal;font-stretch:normal;font-size:3.52777767px;font-family:'DejaVu Sans';-inkscape-font-specification:'DejaVu Sans';text-align:center;text-anchor:middle;stroke-width:0.26458332">0</tspan></text>
    <text
       id="text911"
       y="272.3548"
       x="33.054611"
       style="font-style:normal;font-weight:normal;font-size:10.58333302px;line-height:1.25;font-family:sans-serif;text-align:center;letter-spacing:0px;word-spacing:0px;text-anchor:middle;fill:#f9f9f9;fill-opacity:1;stroke:none;stroke-width:0.26458332"
       xml:space="preserve"><tspan
         style="font-style:normal;font-variant:normal;font-weight:normal;font-stretch:normal;font-size:3.52777767px;font-family:'DejaVu Sans';-inkscape-font-specification:'DejaVu Sans';text-align:center;text-anchor:middle;stroke-width:0.26458332"
         y="272.3548"
         x="33.054611"
         id="tspan909">0</tspan></text>
    <path
       id="use913"
       d="M 25.152166,289.56411 H 46.318833"
       style="fill:none;stroke:#f9f9f9;stroke-width:0.26499999;stroke-linecap:round;stroke-linejoin:miter;stroke-miterlimit:4;stroke-dasharray:none;stroke-opacity:1" />
    <text
       xml:space="preserve"
       style="font-style:normal;font-weight:normal;font-size:10.58333302px;line-height:1.25;font-family:sans-serif;text-align:center;letter-spacing:0px;word-spacing:0px;text-anchor:middle;fill:#f9f9f9;fill-opacity:1;stroke:none;stroke-width:0.26458332"
       x="43.637947"
       y="277.64645"
       id="text917"><tspan
         id="tspan915"
         x="43.637947"
         y="277.64645"
         style="font-style:normal;font-variant:normal;font-weight:normal;font-stretch:normal;font-size:3.52777767px;font-family:'DejaVu Sans';-inkscape-font-specification:'DejaVu Sans';text-align:center;text-anchor:middle;stroke-width:0.26458332">1</tspan></text>
    <text
       id="text921"
       y="272.3548"
       x="43.637947"
       style="font-style:normal;font-weight:normal;font-size:10.58333302px;line-height:1.25;font-family:sans-serif;text-align:center;letter-spacing:0px;word-spacing:0px;text-anchor:middle;fill:#f9f9f9;fill-opacity:1;stroke:none;stroke-width:0.26458332"
       xml:space="preserve"><tspan
         style="font-style:normal;font-variant:normal;font-weight:normal;font-stretch:normal;font-size:3.52777767px;font-family:'DejaVu Sans';-inkscape-font-specification:'DejaVu Sans';text-align:center;text-anchor:middle;stroke-width:0.26458332"
         y="272.3548"
         x="43.637947"
         id="tspan919">0</tspan></text>
    <text
       id="text925"
       y="272.3548"
       x="27.762943"
       style="font-style:normal;font-weight:normal;font-size:10.58333302px;line-height:1.25;font-family:sans-serif;text-align:center;letter-spacing:0px;word-spacing:0px;text-anchor:middle;fill:#f9f9f9;fill-opacity:1;stroke:none;stroke-width:0.26458332"
       xml:space="preserve"><tspan
         style="font-style:normal;font-variant:normal;font-weight:normal;font-stretch:normal;font-size:3.52777767px;font-family:'DejaVu Sans';-inkscape-font-specification:'DejaVu Sans';text-align:center;text-anchor:middle;stroke-width:0.26458332"
         y="272.3548"
         x="27.762943"
         id="tspan923">0</tspan></text>
    <text
       xml:space="preserve"
       style="font-style:normal;font-weight:normal;font-size:10.58333302px;line-height:1.25;font-family:sans-serif;text-align:center;letter-spacing:0px;word-spacing:0px;text-anchor:middle;fill:#f9f9f9;fill-opacity:1;stroke:none;stroke-width:0.26458332"
       x="33.054611"
       y="272.3548"
       id="text929"><tspan
         id="tspan927"
         x="33.054611"
         y="272.3548"
         style="font-style:normal;font-variant:normal;font-weight:normal;font-stretch:normal;font-size:3.52777767px;font-family:'DejaVu Sans';-inkscape-font-specification:'DejaVu Sans';text-align:center;text-anchor:middle;stroke-width:0.26458332">0</tspan></text>
    <text
       id="text933"
       y="277.64645"
       x="38.346279"
       style="font-style:normal;font-weight:normal;font-size:10.58333302px;line-height:1.25;font-family:sans-serif;text-align:center;letter-spacing:0px;word-spacing:0px;text-anchor:middle;fill:#f9f9f9;fill-opacity:1;stroke:none;stroke-width:0.26458332"
       xml:space="preserve"><tspan
         style="font-style:normal;font-variant:normal;font-weight:normal;font-stretch:normal;font-size:3.52777767px;font-family:'DejaVu Sans';-inkscape-font-specification:'DejaVu Sans';text-align:center;text-anchor:middle;stroke-width:0.26458332"
         y="277.64645"
         x="38.346279"
         id="tspan931">0</tspan></text>
    <text
       xml:space="preserve"
       style="font-style:normal;font-weight:normal;font-size:10.58333302px;line-height:1.25;font-family:sans-serif;text-align:center;letter-spacing:0px;word-spacing:0px;text-anchor:middle;fill:#f9f9f9;fill-opacity:1;stroke:none;stroke-width:0.26458332"
       x="43.637947"
       y="272.3548"
       id="text937"><tspan
         id="tspan935"
         x="43.637947"
         y="272.3548"
         style="font-style:normal;font-variant:normal;font-weight:normal;font-stretch:normal;font-size:3.52777767px;font-family:'DejaVu Sans';-inkscape-font-specification:'DejaVu Sans';text-align:center;text-anchor:middle;stroke-width:0.26458332">0</tspan></text>
    <text
       id="text973"
       y="277.64645"
       x="33.054611"
       style="font-style:normal;font-weight:normal;font-size:10.58333302px;line-height:1.25;font-family:sans-serif;text-align:center;letter-spacing:0px;word-spacing:0px;text-anchor:middle;fill:#f9f9f9;fill-opacity:1;stroke:none;stroke-width:0.26458332"
       xml:space="preserve"><tspan
         style="font-style:normal;font-variant:normal;font-weight:normal;font-stretch:normal;font-size:3.52777767px;font-family:'DejaVu Sans';-inkscape-font-specification:'DejaVu Sans';text-align:center;text-anchor:middle;stroke-width:0.26458332"
         y="277.64645"
         x="33.054611"
         id="tspan971">1</tspan></text>
    <text
       xml:space="preserve"
       style="font-style:normal;font-weight:normal;font-size:10.58333302px;line-height:1.25;font-family:sans-serif;text-align:center;letter-spacing:0px;word-spacing:0px;text-anchor:middle;fill:#f9f9f9;fill-opacity:1;stroke:none;stroke-width:0.26458332"
       x="27.762945"
       y="277.64645"
       id="text977"><tspan
         id="tspan975"
         x="27.762945"
         y="277.64645"
         style="font-style:normal;font-variant:normal;font-weight:normal;font-stretch:normal;font-size:3.52777767px;font-family:'DejaVu Sans';-inkscape-font-specification:'DejaVu Sans';text-align:center;text-anchor:middle;stroke-width:0.26458332">0</tspan></text>
    <text
       id="text981"
       y="288.22977"
       x="27.762945"
       style="font-style:normal;font-weight:normal;font-size:10.58333302px;line-height:1.25;font-family:sans-serif;text-align:center;letter-spacing:0px;word-spacing:0px;text-anchor:middle;fill:#f9f9f9;fill-opacity:1;stroke:none;stroke-width:0.26458332"
       xml:space="preserve"><tspan
         style="font-style:normal;font-variant:normal;font-weight:normal;font-stretch:normal;font-size:3.52777767px;font-family:'DejaVu Sans';-inkscape-font-specification:'DejaVu Sans';text-align:center;text-anchor:middle;stroke-width:0.26458332"
         y="288.22977"
         x="27.762945"
         id="tspan979">0</tspan></text>
    <text
       xml:space="preserve"
       style="font-style:normal;font-weight:normal;font-size:10.58333302px;line-height:1.25;font-family:sans-serif;text-align:center;letter-spacing:0px;word-spacing:0px;text-anchor:middle;fill:#f9f9f9;fill-opacity:1;stroke:none;stroke-width:0.26458332"
       x="43.637947"
       y="288.22977"
       id="text985"><tspan
         id="tspan983"
         x="43.637947"
         y="288.22977"
         style="font-style:normal;font-variant:normal;font-weight:normal;font-stretch:normal;font-size:3.52777767px;font-family:'DejaVu Sans';-inkscape-font-specification:'DejaVu Sans';text-align:center;text-anchor:middle;stroke-width:0.26458332">0</tspan></text>
    <text
       id="text989"
       y="282.93811"
       x="43.637947"
       style="font-style:normal;font-weight:normal;font-size:10.58333302px;line-height:1.25;font-family:sans-serif;text-align:center;letter-spacing:0px;word-spacing:0px;text-anchor:middle;fill:#f9f9f9;fill-opacity:1;stroke:none;stroke-width:0.26458332"
       xml:space="preserve"><tspan
         style="font-style:normal;font-variant:normal;font-weight:normal;font-stretch:normal;font-size:3.52777767px;font-family:'DejaVu Sans';-inkscape-font-specification:'DejaVu Sans';text-align:center;text-anchor:middle;stroke-width:0.26458332"
         y="282.93811"
         x="43.637947"
         id="tspan987">0</tspan></text>
    <text
       xml:space="preserve"
       style="font-style:normal;font-weight:normal;font-size:10.58333302px;line-height:1.25;font-family:sans-serif;text-align:center;letter-spacing:0px;word-spacing:0px;text-anchor:middle;fill:#f9f9f9;fill-opacity:1;stroke:none;stroke-width:0.26458332"
       x="38.346279"
       y="272.3548"
       id="text997"><tspan
         id="tspan995"
         x="38.346279"
         y="272.3548"
         style="font-style:normal;font-variant:normal;font-weight:normal;font-stretch:normal;font-size:3.52777767px;font-family:'DejaVu Sans';-inkscape-font-specification:'DejaVu Sans';text-align:center;text-anchor:middle;stroke-width:0.26458332">1</tspan></text>
    <text
       id="text1001"
       y="282.93811"
       x="38.346279"
       style="font-style:normal;font-weight:normal;font-size:10.58333302px;line-height:1.25;font-family:sans-serif;text-align:center;letter-spacing:0px;word-spacing:0px;text-anchor:middle;fill:#f9f9f9;fill-opacity:1;stroke:none;stroke-width:0.26458332"
       xml:space="preserve"><tspan
         style="font-style:normal;font-variant:normal;font-weight:normal;font-stretch:normal;font-size:3.52777767px;font-family:'DejaVu Sans';-inkscape-font-specification:'DejaVu Sans';text-align:center;text-anchor:middle;stroke-width:0.26458332"
         y="282.93811"
         x="38.346279"
         id="tspan999">1</tspan></text>
    <text
       xml:space="preserve"
       style="font-style:normal;font-weight:normal;font-size:10.58333302px;line-height:1.25;font-family:sans-serif;text-align:center;letter-spacing:0px;word-spacing:0px;text-anchor:middle;fill:#f9f9f9;fill-opacity:1;stroke:none;stroke-width:0.26458332"
       x="38.346279"
       y="288.22977"
       id="text1005"><tspan
         id="tspan1003"
         x="38.346279"
         y="288.22977"
         style="font-style:normal;font-variant:normal;font-weight:normal;font-stretch:normal;font-size:3.52777767px;font-family:'DejaVu Sans';-inkscape-font-specification:'DejaVu Sans';text-align:center;text-anchor:middle;stroke-width:0.26458332">1</tspan></text>
    <text
       id="text1009"
       y="288.22977"
       x="33.054611"
       style="font-style:normal;font-weight:normal;font-size:10.58333302px;line-height:1.25;font-family:sans-serif;text-align:center;letter-spacing:0px;word-spacing:0px;text-anchor:middle;fill:#f9f9f9;fill-opacity:1;stroke:none;stroke-width:0.26458332"
       xml:space="preserve"><tspan
         style="font-style:normal;font-variant:normal;font-weight:normal;font-stretch:normal;font-size:3.52777767px;font-family:'DejaVu Sans';-inkscape-font-specification:'DejaVu Sans';text-align:center;text-anchor:middle;stroke-width:0.26458332"
         y="288.22977"
         x="33.054611"
         id="tspan1007">1</tspan></text>
    <text
       xml:space="preserve"
       style="font-style:normal;font-weight:normal;font-size:10.58333302px;line-height:1.25;font-family:sans-serif;text-align:center;letter-spacing:0px;word-spacing:0px;text-anchor:middle;fill:#f9f9f9;fill-opacity:1;stroke:none;stroke-width:0.26458332"
       x="33.054611"
       y="282.93811"
       id="text1013"><tspan
         id="tspan1011"
         x="33.054611"
         y="282.93811"
         style="font-style:normal;font-variant:normal;font-weight:normal;font-stretch:normal;font-size:3.52777767px;font-family:'DejaVu Sans';-inkscape-font-specification:'DejaVu Sans';text-align:center;text-anchor:middle;stroke-width:0.26458332">1</tspan></text>
    <text
       id="text1017"
       y="282.93811"
       x="27.762945"
       style="font-style:normal;font-weight:normal;font-size:10.58333302px;line-height:1.25;font-family:sans-serif;text-align:center;letter-spacing:0px;word-spacing:0px;text-anchor:middle;fill:#f9f9f9;fill-opacity:1;stroke:none;stroke-width:0.26458332"
       xml:space="preserve"><tspan
         style="font-style:normal;font-variant:normal;font-weight:normal;font-stretch:normal;font-size:3.52777767px;font-family:'DejaVu Sans';-inkscape-font-specification:'DejaVu Sans';text-align:center;text-anchor:middle;stroke-width:0.26458332"
         y="282.93811"
         x="27.762945"
         id="tspan1015">1</tspan></text>
    <path
       style="fill:none;stroke:#f9f9f9;stroke-width:0.26499999;stroke-linecap:round;stroke-linejoin:miter;stroke-miterlimit:4;stroke-dasharray:none;stroke-opacity:1"
       d="m 25.152165,278.98078 h 5.291667 l 0,-5.29167 h 5.291666 5.291667 5.291667"
       id="path1139" />
    <path
       id="path1141"
       d="m 25.152165,284.27245 h 5.291667 v 5.29167"
       style="fill:none;stroke:#f9f9f9;stroke-width:0.26499999;stroke-linecap:round;stroke-linejoin:miter;stroke-miterlimit:4;stroke-dasharray:none;stroke-opacity:1" />
    <path
       style="fill:none;stroke:#f9f9f9;stroke-width:0.26499999;stroke-linecap:round;stroke-linejoin:miter;stroke-miterlimit:4;stroke-dasharray:none;stroke-opacity:1"
       d="M 46.316959,278.98265 H 35.733625 v -10.58334"
       id="path1143" />
    <path
       transform="matrix(0.26458334,0,0,0.26458334,0,263.13333)"
       id="path1145"
       d="m 115.57766,89.104787 v -10 h -10 -9.999999 v -9.285714 -9.285714 h 9.999999 10 v -10 -10 h 9.46429 9.46428 v 10 10 h 10 10 v 19.285714 19.285714 h -19.46428 -19.46429 z m 12.5,5.357143 c 0,-0.555557 -0.23809,-0.714286 -1.07143,-0.714286 h -1.07143 v -4.464285 c 0,-4.978229 0.092,-4.83299 -2.58928,-4.088365 -0.98632,0.273915 -1.33929,0.563243 -1.33929,1.097815 0,0.620728 0.15521,0.691785 1.07143,0.49055 l 1.07143,-0.235325 v 3.599803 3.599807 h -1.07143 c -1.00755,0 -1.42601,0.5978 -0.83333,1.190475 0.13095,0.130954 1.49702,0.238097 3.03571,0.238097 2.55953,0 2.79762,-0.06079 2.79762,-0.714286 z m 20,0 c 0,-0.555557 -0.2381,-0.714286 -1.07143,-0.714286 h -1.07143 v -4.464285 c 0,-4.978229 0.092,-4.83299 -2.58928,-4.088365 -0.98632,0.273915 -1.33929,0.563243 -1.33929,1.097815 0,0.620728 0.15521,0.691785 1.07143,0.49055 l 1.07143,-0.235325 v 3.599803 3.599807 h -1.07143 c -1.00755,0 -1.42601,0.5978 -0.83333,1.190475 0.13095,0.130954 1.49702,0.238097 3.03571,0.238097 2.55952,0 2.79762,-0.06079 2.79762,-0.714286 z m -40,-20 c 0,-0.555556 -0.23809,-0.714286 -1.07143,-0.714286 h -1.07143 v -4.464285 c 0,-4.978229 0.092,-4.83299 -2.58928,-4.088364 -0.98632,0.273914 -1.33929,0.563241 -1.33929,1.097813 0,0.620728 0.15521,0.691787 1.07143,0.490551 l 1.07143,-0.235326 v 3.599806 3.599805 h -1.07143 c -1.00755,0 -1.42601,0.597799 -0.83333,1.190476 0.13095,0.130953 1.49702,0.238096 3.03571,0.238096 2.55953,0 2.79762,-0.06079 2.79762,-0.714286 z m 20,0 c 0,-0.555556 -0.23809,-0.714286 -1.07143,-0.714286 h -1.07143 v -4.464285 c 0,-4.978229 0.092,-4.83299 -2.58928,-4.088364 -0.98632,0.273914 -1.33929,0.563241 -1.33929,1.097813 0,0.620728 0.15521,0.691787 1.07143,0.490551 l 1.07143,-0.235326 v 3.599806 3.599805 h -1.07143 c -1.00755,0 -1.42601,0.597799 -0.83333,1.190476 0.13095,0.130953 1.49702,0.238096 3.03571,0.238096 2.55953,0 2.79762,-0.06079 2.79762,-0.714286 z m 20,0 c 0,-0.555556 -0.2381,-0.714286 -1.07143,-0.714286 h -1.07143 v -4.464285 c 0,-4.978229 0.092,-4.83299 -2.58928,-4.088364 -0.98632,0.273914 -1.33929,0.563241 -1.33929,1.097813 0,0.620728 0.15521,0.691787 1.07143,0.490551 l 1.07143,-0.235326 v 3.599806 3.599805 h -1.07143 c -1.00755,0 -1.42601,0.597799 -0.83333,1.190476 0.13095,0.130953 1.49702,0.238096 3.03571,0.238096 2.55952,0 2.79762,-0.06079 2.79762,-0.714286 z m -20,-20 c 0,-0.555556 -0.23809,-0.714286 -1.07143,-0.714286 h -1.07143 v -4.464285 c 0,-4.978229 0.092,-4.83299 -2.58928,-4.088364 -0.98632,0.273914 -1.33929,0.563241 -1.33929,1.097813 0,0.620728 0.15521,0.691787 1.07143,0.490551 l 1.07143,-0.235326 v 3.599806 3.599805 h -1.07143 c -1.00755,0 -1.42601,0.597799 -0.83333,1.190476 0.13095,0.130953 1.49702,0.238096 3.03571,0.238096 2.55953,0 2.79762,-0.06079 2.79762,-0.714286 z"
       style="opacity:1;fill:#f8abcd;fill-opacity:0.31948882;stroke:none;stroke-width:0.35770527;stroke-linecap:round;stroke-miterlimit:4;stroke-dasharray:none;stroke-dashoffset:0;stroke-opacity:1" />
    <path
       id="path1147"
       d="m 35.87159,271.02296 v -2.45684 h 2.504094 2.50409 v 2.45684 2.45685 h -2.50409 -2.504094 z m 3.307292,1.22843 c 0,-0.147 -0.063,-0.18899 -0.283483,-0.18899 h -0.283482 v -1.18118 c 0,-1.31715 0.02434,-1.27873 -0.685081,-1.08171 -0.260963,0.0725 -0.354353,0.14902 -0.354353,0.29046 0,0.16424 0.04107,0.18304 0.283482,0.12979 l 0.283483,-0.0623 v 0.95245 0.95245 h -0.283483 c -0.266581,0 -0.377298,0.15817 -0.220485,0.31498 0.03465,0.0346 0.396086,0.063 0.803198,0.063 0.677209,0 0.740204,-0.0161 0.740204,-0.18898 z"
       style="opacity:1;fill:#f8abcd;fill-opacity:0.31948882;stroke:none;stroke-width:0.09464286;stroke-linecap:round;stroke-miterlimit:4;stroke-dasharray:none;stroke-dashoffset:0;stroke-opacity:1" />
    <path
       transform="matrix(0.26458334,0,0,0.26458334,0,263.13333)"
       id="path1149"
       d="m 155.57766,49.819073 v -9.285714 h 9.46429 9.46428 v 9.285714 9.285714 h -9.46428 -9.46429 z m 12.5,4.642857 c 0,-0.555556 -0.23809,-0.714286 -1.07143,-0.714286 h -1.07143 v -4.464285 c 0,-4.978229 0.092,-4.83299 -2.58928,-4.088364 -0.98632,0.273914 -1.33929,0.563241 -1.33929,1.097813 0,0.620728 0.15521,0.691787 1.07143,0.490551 l 1.07143,-0.235326 v 3.599806 3.599805 h -1.07143 c -1.00755,0 -1.42601,0.597799 -0.83333,1.190476 0.13095,0.130953 1.49702,0.238096 3.03571,0.238096 2.55953,0 2.79762,-0.06079 2.79762,-0.714286 z"
       style="opacity:1;fill:#f8abcd;fill-opacity:0.31948882;stroke:none;stroke-width:0.35770527;stroke-linecap:round;stroke-miterlimit:4;stroke-dasharray:none;stroke-dashoffset:0;stroke-opacity:1" />
    <path
       transform="matrix(0.26458334,0,0,0.26458334,0,263.13333)"
       id="path1153"
       d="M 155.57766,79.819073 V 60.533359 h 9.46429 9.46428 v 19.285714 19.285714 h -9.46428 -9.46429 z m 10.83682,14.960551 c 1.33213,-0.606959 1.84175,-1.930167 1.84175,-4.78198 0,-2.851812 -0.50962,-4.17502 -1.84175,-4.781979 -3.1548,-1.437421 -5.55595,1.582312 -4.92219,6.190246 0.41238,2.998386 2.54213,4.458138 4.92219,3.373713 z m 0,-20 c 1.33213,-0.606959 1.84175,-1.930167 1.84175,-4.78198 0,-2.851813 -0.50962,-4.17502 -1.84175,-4.781979 -3.1548,-1.437421 -5.55595,1.582312 -4.92219,6.190246 0.41238,2.998385 2.54213,4.458138 4.92219,3.373713 z"
       style="opacity:1;fill:#abf8d2;fill-opacity:0.31948882;stroke:none;stroke-width:0.35770527;stroke-linecap:round;stroke-miterlimit:4;stroke-dasharray:none;stroke-dashoffset:0;stroke-opacity:1" />
    <path
       id="path1155"
       d="m 43.328416,282.4941 c -0.175707,-0.21171 -0.218932,-1.25527 -0.06417,-1.54926 0.166188,-0.31571 0.485527,-0.35287 0.677463,-0.0788 0.201864,0.28821 0.204253,1.28349 0.0038,1.56973 -0.172795,0.2467 -0.439804,0.27196 -0.617056,0.0584 z"
       style="opacity:1;fill:#abf8d2;fill-opacity:0.31948882;stroke:none;stroke-width:0.09464286;stroke-linecap:round;stroke-miterlimit:4;stroke-dasharray:none;stroke-dashoffset:0;stroke-opacity:1" />
    <path
       id="path1157"
       d="m 43.328416,287.78577 c -0.175707,-0.21171 -0.218932,-1.25527 -0.06417,-1.54926 0.166188,-0.31571 0.485527,-0.35288 0.677463,-0.0788 0.201864,0.2882 0.204253,1.28349 0.0038,1.56972 -0.172795,0.2467 -0.439804,0.27197 -0.617056,0.0584 z"
       style="opacity:1;fill:#abf8d2;fill-opacity:0.31948882;stroke:none;stroke-width:0.09464286;stroke-linecap:round;stroke-miterlimit:4;stroke-dasharray:none;stroke-dashoffset:0;stroke-opacity:1" />
    <path
       transform="matrix(0.26458334,0,0,0.26458334,0,263.13333)"
       id="path1159"
       d="m 135.57766,49.819073 v -9.285714 h 9.46429 9.46428 v 9.285714 9.285714 h -9.46428 -9.46429 z m 10.83682,4.960551 c 1.33213,-0.606959 1.84175,-1.930167 1.84175,-4.78198 0,-2.851813 -0.50962,-4.17502 -1.84175,-4.781979 -3.1548,-1.437421 -5.55595,1.582312 -4.92219,6.190246 0.41238,2.998385 2.54213,4.458138 4.92219,3.373713 z"
       style="opacity:1;fill:#abf8d2;fill-opacity:0.31948882;stroke:none;stroke-width:0.35770527;stroke-linecap:round;stroke-miterlimit:4;stroke-dasharray:none;stroke-dashoffset:0;stroke-opacity:1" />
    <path
       id="path1161"
       d="m 38.03675,277.20244 c -0.175707,-0.21172 -0.218932,-1.25527 -0.06417,-1.54927 0.166187,-0.31571 0.485526,-0.35287 0.677463,-0.0788 0.201863,0.2882 0.204253,1.28349 0.0038,1.56972 -0.172794,0.2467 -0.439804,0.27197 -0.617056,0.0584 z"
       style="opacity:1;fill:#abf8d2;fill-opacity:0.31948882;stroke:none;stroke-width:0.09464286;stroke-linecap:round;stroke-miterlimit:4;stroke-dasharray:none;stroke-dashoffset:0;stroke-opacity:1" />
    <path
       id="path1163"
       d="m 43.328416,271.91077 c -0.175707,-0.21171 -0.218932,-1.25527 -0.06417,-1.54927 0.166188,-0.3157 0.485527,-0.35287 0.677463,-0.0788 0.201864,0.2882 0.204253,1.28349 0.0038,1.56972 -0.172795,0.2467 -0.439804,0.27197 -0.617056,0.0584 z"
       style="opacity:1;fill:#abf8d2;fill-opacity:0.31948882;stroke:none;stroke-width:0.09464286;stroke-linecap:round;stroke-miterlimit:4;stroke-dasharray:none;stroke-dashoffset:0;stroke-opacity:1" />
    <path
       id="path1165"
       d="m 41.163257,271.02296 v -2.45684 h 2.504093 2.504091 v 2.45684 2.45685 H 43.66735 41.163257 Z m 2.999113,1.27289 c 0.334764,-0.23448 0.493591,-1.07816 0.343882,-1.8267 -0.138809,-0.69404 -0.897734,-0.9945 -1.405623,-0.55649 -0.513641,0.44297 -0.538991,1.76727 -0.04332,2.26294 0.303283,0.30328 0.771067,0.35419 1.105061,0.12025 z"
       style="opacity:1;fill:#abf8d2;fill-opacity:0.31948882;stroke:none;stroke-width:0.09464286;stroke-linecap:round;stroke-miterlimit:4;stroke-dasharray:none;stroke-dashoffset:0;stroke-opacity:1" />
    <path
       id="path1167"
       d="m 32.745083,271.91077 c -0.175707,-0.21171 -0.218932,-1.25527 -0.06417,-1.54927 0.166187,-0.3157 0.485526,-0.35287 0.677463,-0.0788 0.201864,0.2882 0.204253,1.28349 0.0038,1.56972 -0.172794,0.2467 -0.439804,0.27197 -0.617056,0.0584 z"
       style="opacity:1;fill:#abf8d2;fill-opacity:0.31948882;stroke:none;stroke-width:0.09464286;stroke-linecap:round;stroke-miterlimit:4;stroke-dasharray:none;stroke-dashoffset:0;stroke-opacity:1" />
    <path
       transform="matrix(0.26458334,0,0,0.26458334,0,263.13333)"
       id="path1169"
       d="M 95.577661,39.819073 V 20.533359 h 19.464289 19.46428 v 9.285714 9.285714 h -10 -10 v 10 10 h -9.46428 -9.464289 z m 10.836819,14.960551 c 1.33213,-0.606959 1.84175,-1.930167 1.84175,-4.78198 0,-2.851813 -0.50962,-4.17502 -1.84175,-4.781979 -3.1548,-1.437421 -5.55595,1.582312 -4.92219,6.190246 0.41238,2.998385 2.54213,4.458138 4.92219,3.373713 z m 0.49841,-20.149652 c 1.26525,-0.886222 1.86554,-4.07491 1.29971,-6.90404 -0.52463,-2.623154 -3.39301,-3.758765 -5.31259,-2.103288 -1.94132,1.67423 -2.03713,6.679447 -0.16373,8.552855 1.14627,1.146268 2.91427,1.338651 4.17661,0.454473 z m 20,0 c 1.26525,-0.886222 1.86554,-4.07491 1.29971,-6.90404 -0.52463,-2.623154 -3.39301,-3.758765 -5.31259,-2.103288 -1.94132,1.67423 -2.03713,6.679447 -0.16373,8.552855 1.14627,1.146268 2.91427,1.338651 4.17661,0.454473 z"
       style="opacity:1;fill:#abf8d2;fill-opacity:0.31948882;stroke:none;stroke-width:0.35770527;stroke-linecap:round;stroke-miterlimit:4;stroke-dasharray:none;stroke-dashoffset:0;stroke-opacity:1" />
    <path
       id="path1171"
       d="m 27.453416,271.91077 c -0.175707,-0.21171 -0.218932,-1.25527 -0.06417,-1.54927 0.166187,-0.3157 0.485526,-0.35287 0.677463,-0.0788 0.201864,0.2882 0.204253,1.28349 0.0038,1.56972 -0.172794,0.2467 -0.439804,0.27197 -0.617056,0.0584 z"
       style="opacity:1;fill:#abf8d2;fill-opacity:0.31948882;stroke:none;stroke-width:0.09464286;stroke-linecap:round;stroke-miterlimit:4;stroke-dasharray:none;stroke-dashoffset:0;stroke-opacity:1" />
    <path
       id="path1173"
       d="m 27.453416,277.20244 c -0.175707,-0.21172 -0.218932,-1.25527 -0.06417,-1.54927 0.166187,-0.31571 0.485526,-0.35287 0.677463,-0.0788 0.201864,0.2882 0.204253,1.28349 0.0038,1.56972 -0.172794,0.2467 -0.439804,0.27197 -0.617056,0.0584 z"
       style="opacity:1;fill:#abf8d2;fill-opacity:0.31948882;stroke:none;stroke-width:0.09464286;stroke-linecap:round;stroke-miterlimit:4;stroke-dasharray:none;stroke-dashoffset:0;stroke-opacity:1" />
    <path
       transform="matrix(0.26458334,0,0,0.26458334,0,263.13333)"
       id="path1175"
       d="m 95.577661,89.819073 v -9.285714 h 9.464289 9.46428 v 9.285714 9.285714 h -9.46428 -9.464289 z m 10.836819,4.960551 c 1.33213,-0.606959 1.84175,-1.930167 1.84175,-4.78198 0,-2.851812 -0.50962,-4.17502 -1.84175,-4.781979 -3.1548,-1.437421 -5.55595,1.582312 -4.92219,6.190246 0.41238,2.998386 2.54213,4.458138 4.92219,3.373713 z"
       style="opacity:1;fill:#abf8d2;fill-opacity:0.31948882;stroke:none;stroke-width:0.35770527;stroke-linecap:round;stroke-miterlimit:4;stroke-dasharray:none;stroke-dashoffset:0;stroke-opacity:1" />
    <path
       id="path1177"
       d="m 27.453416,287.78577 c -0.175707,-0.21171 -0.218932,-1.25527 -0.06417,-1.54926 0.166187,-0.31571 0.485526,-0.35288 0.677463,-0.0788 0.201864,0.2882 0.204253,1.28349 0.0038,1.56972 -0.172794,0.2467 -0.439804,0.27197 -0.617056,0.0584 z"
       style="opacity:1;fill:#abf8d2;fill-opacity:0.31948882;stroke:none;stroke-width:0.09464286;stroke-linecap:round;stroke-miterlimit:4;stroke-dasharray:none;stroke-dashoffset:0;stroke-opacity:1" />
  </g>
</svg>
